<svg xmlns="http://www.w3.org/2000/svg" viewBox="0 0 64 64" role="img" aria-label="Кур'єр тримає коробку">
  <defs>
    <linearGradient id="bg" x1="0" y1="0" x2="1" y2="1">
      <stop offset="0" stop-color="#f5f9ff"/>
      <stop offset="1" stop-color="#e8f1fc"/>
    </linearGradient>
    <linearGradient id="jacket" x1="0" y1="0" x2="1" y2="1">
      <stop offset="0" stop-color="#3d95e6"/>
      <stop offset="1" stop-color="#2f74bd"/>
    </linearGradient>
  </defs>

  <rect x="4" y="4" width="56" height="56" rx="14" fill="url(#bg)" stroke="#c7d9ec"/>

  <path d="M18 50h28" stroke="#bcd0e6" stroke-width="2.5" stroke-linecap="round"/>

  <circle cx="32" cy="18" r="6" fill="#ffd8c2"/>
  <path d="M28 19c1.8 1.2 5.8 1.2 8 0" stroke="#c88f74" stroke-width="1.5" stroke-linecap="round"/>

  <path d="M24 45V31c0-4.2 3.4-7.6 7.6-7.6h0.8c4.2 0 7.6 3.4 7.6 7.6v14" fill="url(#jacket)"/>
  <path d="M28.5 24.5l3.5 4.2 3.5-4.2" fill="#ffffff"/>
  <path d="M31.3 29h1.4l1.1 7.8-1.8 5.3-1.8-5.3z" fill="#ffffff" opacity="0.92"/>

  <rect x="22" y="46" width="6" height="7" rx="2" fill="#304f7f"/>
  <rect x="36" y="46" width="6" height="7" rx="2" fill="#304f7f"/>

  <rect x="37" y="30" width="14" height="12" rx="2" fill="#f6b491" stroke="#de8c66" stroke-width="1.6"/>
  <path d="M44 30v12" stroke="#de8c66" stroke-width="1.4"/>
  <path d="M37 35.8h14" stroke="#de8c66" stroke-width="1.4"/>
  <path d="M39 28.7l2-2.2h6l2 2.2" fill="none" stroke="#de8c66" stroke-width="1.4" stroke-linecap="round" stroke-linejoin="round"/>

  <path d="M37 31l-4.4-2.4a2.4 2.4 0 0 0-3 0.6l-2.3 2.8" fill="none" stroke="#ffd8c2" stroke-width="2.4" stroke-linecap="round"/>
</svg>
